<?xml version="1.0" encoding="utf-8"?>
<!-- Generator: Adobe Illustrator 28.1.0, SVG Export Plug-In . SVG Version: 6.00 Build 0)  -->
<svg version="1.1" id="Layer_1" xmlns="http://www.w3.org/2000/svg" xmlns:xlink="http://www.w3.org/1999/xlink" x="0px" y="0px"
	 viewBox="0 0 671.7 128.1" style="enable-background:new 0 0 671.7 128.1;" xml:space="preserve">
<g>
	<path d="M643.5,78.7c0.6-0.4,1-0.8,1.3-1.2c0.3-0.4,0.4-1,0.4-1.7c0-0.8-0.3-1.5-1-2.1c-0.7-0.5-1.6-0.8-2.7-0.8h-3.1v9.2h2.2v-3.3
		h0.9l2,3.3h2.3L643.5,78.7L643.5,78.7z M642.7,76.7c-0.2,0.2-0.5,0.3-0.8,0.3h-1.4v-2h1.4c0.4,0,0.7,0.1,0.8,0.3
		c0.2,0.2,0.3,0.4,0.3,0.7C643,76.3,642.9,76.5,642.7,76.7L642.7,76.7z"/>
	<path d="M649.8,72.8c-0.8-1.4-1.9-2.6-3.4-3.4c-1.4-0.8-3-1.2-4.7-1.2s-3.2,0.4-4.6,1.2c-1.4,0.8-2.5,2-3.4,3.4
		c-0.8,1.4-1.2,3-1.2,4.7s0.4,3.3,1.2,4.7s1.9,2.6,3.4,3.4c1.4,0.8,3,1.2,4.7,1.2s3.2-0.4,4.6-1.2c1.4-0.8,2.5-2,3.3-3.4
		s1.2-3,1.2-4.7S650.6,74.2,649.8,72.8L649.8,72.8z M647.9,81.1c-0.6,1.1-1.5,2-2.5,2.6c-1.1,0.6-2.2,0.9-3.5,0.9s-2.5-0.3-3.6-0.9
		c-1.1-0.6-1.9-1.5-2.5-2.6s-0.9-2.3-0.9-3.6s0.3-2.5,0.9-3.6s1.5-2,2.5-2.6c1.1-0.6,2.3-0.9,3.6-0.9s2.5,0.3,3.5,1s1.9,1.5,2.5,2.6
		s0.9,2.3,0.9,3.6S648.5,80,647.9,81.1L647.9,81.1z"/>
</g>
<g>
	<path d="M225.4,48.5c-1.3-1.8-3.3-3.3-5.9-4.3c-2.6-1-5.3-1.5-8.1-1.5c-3.6,0-7,0.9-10.1,2.6s-5.6,4.3-7.5,7.6
		c-1.9,3.3-2.8,7.2-2.8,11.7c0,4.2,0.9,8,2.8,11.4c1.9,3.4,4.3,6,7.4,7.9s6.4,2.8,9.9,2.8c2.7,0,5.4-0.6,8.1-1.9s4.7-2.9,6.2-4.9
		v5.6h11.1V43.8h-11.1L225.4,48.5L225.4,48.5z M224.2,70.6c-1,1.8-2.3,3.2-4.1,4.2c-1.7,1-3.7,1.5-5.9,1.5s-4.1-0.5-5.8-1.5
		s-3.2-2.3-4.2-4.1c-1.1-1.7-1.6-3.7-1.6-5.8c0-2.3,0.5-4.3,1.5-6.2s2.4-3.3,4.2-4.3c1.8-1,3.8-1.5,6.1-1.5s4.1,0.5,5.8,1.6
		c1.7,1.1,3.1,2.5,4,4.3c1,1.8,1.5,3.7,1.5,5.8C225.7,66.8,225.2,68.8,224.2,70.6L224.2,70.6z"/>
	<path d="M261.9,60.4c-2.5-0.6-4.3-1.3-5.4-2.1c-1.1-0.8-1.7-1.8-1.7-3c0-1,0.4-1.9,1.2-2.6c0.8-0.7,1.9-1,3.3-1s2.6,0.5,3.8,1.4
		c1.2,1,1.8,2,1.7,3h10.5c0-2.4-0.6-4.7-2.1-6.7c-1.4-2-3.4-3.6-5.9-4.8c-2.5-1.2-5.2-1.7-8.2-1.7s-5.8,0.5-8.2,1.6
		c-2.4,1.1-4.3,2.6-5.7,4.5c-1.4,1.9-2,4.1-2,6.5c0,2.3,0.5,4.2,1.4,5.8c0.9,1.6,2.4,3,4.3,4.2c1.9,1.2,4.5,2.2,7.7,3
		c2.3,0.5,4,1.2,5.2,2.1c1.1,0.9,1.7,1.9,1.7,3.1s-0.4,2.2-1.2,2.8c-0.8,0.7-1.9,1-3.4,1c-1.9,0-3.4-0.6-4.7-1.7
		c-1.3-1.1-1.9-2.6-2-4.3h-10.6c0,2.9,0.8,5.5,2.3,7.8c1.5,2.3,3.6,4.1,6.3,5.3c2.7,1.3,5.7,1.9,9,1.9c3.3,0,6.1-0.6,8.6-1.7
		s4.5-2.7,5.8-4.8s2.1-4.4,2.1-7.1c0-3.3-1.1-5.9-3.3-8C270.1,63.2,266.6,61.6,261.9,60.4L261.9,60.4z"/>
	<rect x="174.1" y="30.1" width="11.2" height="55.6"/>
	<polygon points="296.7,30.1 285.6,30.1 285.6,43.8 279.2,43.8 279.2,53.9 285.6,53.9 285.6,85.7 296.7,85.7 296.7,53.9 304,53.9 
		304,43.8 296.7,43.8 	"/>
	<path d="M148.5,30.1h-20v55.6h11.2V64.1h8.8c4.3,0,7.9-0.7,11-2.1s5.4-3.4,7-5.9c1.6-2.5,2.4-5.5,2.4-8.8c0-4.9-1.5-8.9-4.6-12.2
		S155.9,30.1,148.5,30.1L148.5,30.1z M155.5,52c-1.4,1.2-3.4,1.7-5.9,1.7h-10V40.5h9.3c2.6,0,4.8,0.6,6.3,1.7c1.6,1.1,2.4,2.8,2.4,5
		C157.6,49.3,156.9,50.9,155.5,52L155.5,52z"/>
	<path d="M112.4,45.7c-3.3-2-7-2.9-11.2-2.9s-8,1-11.4,2.8c-3.4,1.9-6,4.5-8,7.9c-1.9,3.3-2.9,7.1-2.9,11.4s1,7.8,2.9,11.2
		s4.6,6,7.9,7.9s7.1,2.9,11.1,2.9s7.9-0.9,11.3-2.8s6-4.5,8-7.9S123,69,123,64.9s-0.9-7.8-2.8-11.2
		C118.3,50.3,115.8,47.7,112.4,45.7z M109,73.1c-2,2-4.7,3.1-8.1,3.1s-5.9-1.1-7.9-3.2c-2-2.1-3-4.8-3-8.1c0-2.2,0.5-4.2,1.5-5.9
		c1-1.7,2.3-3,4-4s3.5-1.4,5.5-1.4c3.3,0,6,1.1,8.1,3.2c2.1,2.1,3.1,4.8,3.1,8.2S111,71,109,73.1L109,73.1z"/>
	<polygon points="62.7,65.4 39,30.1 28.6,30.1 28.6,85.7 39.8,85.7 39.8,50.4 63.4,85.7 73.9,85.7 73.9,30.1 62.7,30.1 	"/>
	<rect x="309.3" y="43.8" width="11.1" height="41.9"/>
	<path d="M531,48.5c-1.3-1.8-3.2-3.3-5.9-4.3c-2.7-1-5.4-1.5-8.1-1.5c-3.6,0-6.9,0.9-10.1,2.6s-5.6,4.3-7.5,7.6
		c-1.9,3.3-2.9,7.2-2.9,11.7c0,4.2,0.9,8,2.8,11.4c1.9,3.4,4.3,6,7.4,7.9s6.4,2.8,9.9,2.8c2.7,0,5.5-0.6,8.1-1.9s4.7-2.9,6.2-4.9
		v5.6H542V30.1H531L531,48.5L531,48.5z M529.8,70.6c-1,1.8-2.3,3.2-4.1,4.2c-1.7,1-3.7,1.5-5.9,1.5c-2.1,0-4-0.5-5.8-1.5
		c-1.8-1-3.2-2.3-4.2-4.1c-1-1.7-1.5-3.7-1.5-5.8c0-2.3,0.5-4.3,1.5-6.2c1-1.8,2.4-3.3,4.2-4.3c1.8-1,3.8-1.5,6.1-1.5
		s4.1,0.5,5.8,1.6c1.7,1.1,3.1,2.5,4,4.3c1,1.8,1.5,3.7,1.5,5.8C531.3,66.8,530.8,68.8,529.8,70.6L529.8,70.6z"/>
	<path d="M581.3,48.5c-1.3-1.8-3.3-3.3-5.9-4.3c-2.6-1-5.3-1.5-8.1-1.5c-3.6,0-7,0.9-10.1,2.6s-5.7,4.3-7.5,7.6
		c-1.9,3.3-2.8,7.2-2.8,11.7c0,4.2,0.9,8,2.8,11.4c1.9,3.4,4.3,6,7.4,7.9s6.4,2.8,9.9,2.8c2.7,0,5.5-0.6,8.1-1.9s4.7-2.9,6.2-4.9
		v5.6h11.1V43.8h-11.1V48.5L581.3,48.5z M580.1,70.6c-1,1.8-2.3,3.2-4.1,4.2c-1.7,1-3.7,1.5-5.9,1.5s-4-0.5-5.8-1.5
		s-3.2-2.3-4.2-4.1c-1.1-1.7-1.6-3.7-1.6-5.8c0-2.3,0.5-4.3,1.5-6.2s2.4-3.3,4.2-4.3c1.8-1,3.8-1.5,6.1-1.5s4.1,0.5,5.8,1.6
		c1.7,1.1,3.1,2.5,4,4.3c1,1.8,1.5,3.7,1.5,5.8C581.6,66.8,581.1,68.8,580.1,70.6L580.1,70.6z"/>
	<polygon points="628.7,43.8 619.1,67.1 608.2,43.8 595.8,43.8 613.2,80.4 604.7,99.5 616.7,99.5 640.9,43.8 	"/>
	<path d="M483.4,44.6c-2.6-1.4-5.5-2.1-8.6-2.1c-2.4,0-4.7,0.6-7,1.7c-2.3,1.2-3.9,2.6-4.9,4.3v-4.8h-10.2v41.9h11.1V65.9
		c0-3.9,0.6-7,1.7-9.3s3.5-3.5,6.9-3.5c3.2,0,5.4,1.2,6.6,3.4c1.2,2.3,1.8,5.4,1.8,9.4v19.8h11.1V62.1c0-4.4-0.8-8.1-2.3-11
		S486,46,483.4,44.6L483.4,44.6z"/>
	<path d="M334.9,46.6c-3.1,1.8-5.4,4.4-6.9,7.5s-2.3,6.7-2.3,10.6s0.9,7.4,2.6,10.6s4.2,5.7,7.4,7.6c3.2,1.9,6.8,2.8,10.9,2.8h10.6
		V75.5h-10.1c-3.2,0-5.8-1-7.6-2.9c-1.9-1.9-2.8-4.6-2.8-7.9s0.9-5.9,2.8-7.8s4.4-2.9,7.6-2.9h10.1V43.8h-11.2
		C341.6,43.8,337.9,44.7,334.9,46.6L334.9,46.6z"/>
	<path d="M435.6,66.1c0,3.8-0.7,6.5-2.1,8.1s-3.5,2.4-6.3,2.4s-4.8-0.8-6.2-2.4c-1.4-1.6-2.1-4.3-2.1-8.1V43.8h-11.1v22.4
		c0,7.1,1.7,12.3,5,15.7s8.2,5.1,14.5,5.1s11.2-1.7,14.5-5c3.3-3.3,5-8.6,5-15.7V43.8h-11.1L435.6,66.1L435.6,66.1z"/>
	<path d="M386.1,52.5c-0.1,0-0.2-0.1-0.4-0.1s-0.3-0.1-0.5-0.1c-3.5-0.9-6-1.9-7.5-3c-1.5-1.1-2.2-2.6-2.2-4.4s0.7-3.3,2-4.5
		c1.4-1.1,3.1-1.7,5.3-1.7c2.3,0,4.3,0.7,5.8,2.1c1.6,1.4,2.3,3.2,2.3,5.4h11.3c0-3.3-0.8-6.3-2.5-9s-4.1-4.8-7.1-6.3
		c-3.1-1.5-6.5-2.3-10.2-2.3s-7.1,0.7-10,2.1c-3,1.4-5.3,3.4-7,5.9S363,42,363,45.2c0,4.3,1.4,7.8,4,10.4c2.7,2.7,6.9,4.7,12.8,6.1
		c0.4,0.1,0.7,0.2,1.1,0.3c0.3,0.1,0.7,0.2,1.1,0.3c2.8,0.9,4.9,2,6.2,3.4c1.4,1.4,2.1,3,2.1,4.8c0,1.9-0.8,3.6-2.3,4.8
		s-3.5,1.9-5.9,1.9c-2.6,0-4.7-0.8-6.4-2.4c-1.7-1.6-2.6-3.8-2.7-6.6h-11.5c0,3.9,0.9,7.3,2.7,10.2s4.3,5.2,7.5,6.8s6.9,2.4,11,2.4
		c3.9,0,7.4-0.8,10.5-2.3s5.5-3.6,7.3-6.2s2.6-5.6,2.6-8.9c0-4.5-1.4-8.3-4.2-11.2C396.1,56.2,391.8,54,386.1,52.5L386.1,52.5z"/>
	<rect x="309" y="30.1" width="11.6" height="10"/>
</g>
</svg>
