<?xml version="1.0" encoding="UTF-8"?>
<svg id="Layer_1" data-name="Layer 1" xmlns="http://www.w3.org/2000/svg" viewBox="0 0 792.42 247.19">
  <defs>
    <style>
      .cls-1 {
        fill: #000;
        stroke-width: 0px;
      }
    </style>
  </defs>
  <g>
    <path class="cls-1" d="M30.1,57.1C11.17,57.1,0,46.73,0,29.23S10.93,1.5,29.46,1.5h8.87v10.45h-9.03c-11.01,0-17.82,6.34-17.82,17.27s6.81,17.42,17.82,17.42h9.03v10.45h-8.24Z"/>
    <path class="cls-1" d="M40.24,29.38C40.24,12.36,51.64.32,69.3.32s28.99,12.04,28.99,29.07-11.96,29.07-28.99,29.07-29.07-12.59-29.07-29.07ZM86.89,29.15c0-10.3-7.37-17.82-17.58-17.82s-17.58,7.52-17.58,17.82,7.6,18.06,17.58,18.06,17.58-7.92,17.58-18.06Z"/>
    <path class="cls-1" d="M137.97,1.5h11.17v55.6h-10.45l-23.68-35.25v35.25h-11.17V1.5h10.45l23.68,35.25V1.5Z"/>
    <path class="cls-1" d="M196.74,41.66c0,10.14-8.63,17.42-20.43,17.42-12.67,0-21.15-7.68-21.23-19.48h11.48c.32,5.47,3.96,9.03,9.11,9.03,4.83,0,8.24-2.77,8.24-6.65,0-4.2-3.33-7.05-10.45-8.79-11.56-2.85-16.79-8-16.79-16.55,0-9.66,8.24-16.63,19.56-16.63s20.04,7.6,19.8,17.58h-11.33c0-4.36-3.56-7.52-8.16-7.52-4.36,0-7.29,2.53-7.29,6.18s2.53,5.62,9.66,7.44c12.04,2.85,17.82,8.71,17.82,17.98Z"/>
    <path class="cls-1" d="M231.67,57.1c-18.93,0-30.1-10.38-30.1-27.88S212.5,1.5,231.03,1.5h8.87v10.45h-9.03c-11.01,0-17.82,6.34-17.82,17.27s6.81,17.42,17.82,17.42h9.03v10.45h-8.24Z"/>
    <path class="cls-1" d="M245.84,57.1V1.5h11.25v55.6h-11.25Z"/>
    <path class="cls-1" d="M263.03,29.38c0-17.03,11.41-29.07,29.07-29.07s28.99,12.04,28.99,29.07-11.96,29.07-28.99,29.07-29.07-12.59-29.07-29.07ZM309.68,29.15c0-10.3-7.37-17.82-17.58-17.82s-17.58,7.52-17.58,17.82,7.6,18.06,17.58,18.06,17.58-7.92,17.58-18.06Z"/>
    <path class="cls-1" d="M326.87,35.48V1.5h11.25v34.14c0,7.84,4.12,12.12,11.01,12.12s11.09-4.28,11.09-12.12V1.5h11.25v33.98c0,14.65-8.4,22.89-22.34,22.89s-22.26-8.47-22.26-22.89Z"/>
    <path class="cls-1" d="M418.9,41.66c0,10.14-8.63,17.42-20.43,17.42-12.67,0-21.15-7.68-21.23-19.48h11.48c.32,5.47,3.96,9.03,9.11,9.03,4.83,0,8.24-2.77,8.24-6.65,0-4.2-3.33-7.05-10.45-8.79-11.56-2.85-16.79-8-16.79-16.55,0-9.66,8.24-16.63,19.56-16.63s20.04,7.6,19.8,17.58h-11.33c0-4.36-3.56-7.52-8.16-7.52-4.36,0-7.29,2.53-7.29,6.18s2.53,5.62,9.66,7.44c12.04,2.85,17.82,8.71,17.82,17.98Z"/>
    <path class="cls-1" d="M467.21,57.1c-18.93,0-30.1-10.38-30.1-27.88s10.93-27.72,29.46-27.72h8.87v10.45h-9.03c-11.01,0-17.82,6.34-17.82,17.27s6.81,17.42,17.82,17.42h9.03v10.45h-8.24Z"/>
    <path class="cls-1" d="M481,35.48V1.5h11.25v34.14c0,7.84,4.12,12.12,11.01,12.12s11.09-4.28,11.09-12.12V1.5h11.25v33.98c0,14.65-8.4,22.89-22.34,22.89s-22.26-8.47-22.26-22.89Z"/>
    <path class="cls-1" d="M543.72,57.1V11.96h-12.28V1.5h35.8v10.45h-12.28v45.15h-11.25Z"/>
    <path class="cls-1" d="M584.35,46.65h22.18v10.45h-33.42V1.5h32.71v10.45h-21.46v12.04h19.09v10.3h-19.09v12.36Z"/>
    <path class="cls-1" d="M647.4,1.5h11.17v55.6h-10.45l-23.68-35.25v35.25h-11.17V1.5h10.45l23.68,35.25V1.5Z"/>
    <path class="cls-1" d="M676.94,46.65h22.18v10.45h-33.42V1.5h32.71v10.45h-21.46v12.04h19.09v10.3h-19.09v12.36Z"/>
    <path class="cls-1" d="M745.93,41.66c0,10.14-8.63,17.42-20.43,17.42-12.67,0-21.15-7.68-21.23-19.48h11.48c.32,5.47,3.96,9.03,9.11,9.03,4.83,0,8.24-2.77,8.24-6.65,0-4.2-3.33-7.05-10.45-8.79-11.56-2.85-16.79-8-16.79-16.55,0-9.66,8.24-16.63,19.56-16.63s20.04,7.6,19.8,17.58h-11.33c0-4.36-3.56-7.52-8.16-7.52-4.36,0-7.29,2.53-7.29,6.18s2.53,5.62,9.66,7.44c12.04,2.85,17.82,8.71,17.82,17.98Z"/>
    <path class="cls-1" d="M792.42,41.66c0,10.14-8.63,17.42-20.43,17.42-12.67,0-21.15-7.68-21.23-19.48h11.48c.32,5.47,3.96,9.03,9.11,9.03,4.83,0,8.24-2.77,8.24-6.65,0-4.2-3.33-7.05-10.45-8.79-11.56-2.85-16.79-8-16.79-16.55,0-9.66,8.24-16.63,19.56-16.63s20.04,7.6,19.8,17.58h-11.33c0-4.36-3.56-7.52-8.16-7.52-4.36,0-7.29,2.53-7.29,6.18s2.53,5.62,9.66,7.44c12.04,2.85,17.82,8.71,17.82,17.98Z"/>
  </g>
  <g>
    <path class="cls-1" d="M324.21,107.08h-21.62v12.2h19.09v9.9h-19.09v22.97h-11.25v-55.6h32.87v10.53Z"/>
    <path class="cls-1" d="M375.14,152.15h-13.31l-15.68-21.54h-5.54v21.54h-11.25v-55.6h20.04c16.32,0,20.35,9.03,20.35,17.19,0,7.37-3.96,13.07-11.4,15.52l16.79,22.89ZM340.61,120.23h9.98c5.15,0,8-2.53,8-6.49,0-4.59-3.64-6.73-8.71-6.73h-9.27v13.23Z"/>
    <path class="cls-1" d="M376.8,124.43c0-17.03,11.41-29.07,29.07-29.07s28.99,12.04,28.99,29.07-11.96,29.07-28.99,29.07-29.07-12.59-29.07-29.07ZM423.45,124.19c0-10.3-7.37-17.82-17.58-17.82s-17.58,7.52-17.58,17.82,7.6,18.06,17.58,18.06,17.58-7.92,17.58-18.06Z"/>
    <path class="cls-1" d="M501.07,96.55v55.6h-11.09v-34.14l-14.97,34.14h-8.32l-14.97-34.14v34.14h-11.09v-55.6h12.36l17.82,40.87,17.9-40.87h12.36Z"/>
  </g>
  <g>
    <path class="cls-1" d="M86.17,247.19h-13.31l-15.68-21.54h-5.54v21.54h-11.25v-55.6h20.04c16.32,0,20.35,9.03,20.35,17.19,0,7.37-3.96,13.07-11.4,15.52l16.79,22.89ZM51.64,215.28h9.98c5.15,0,8-2.53,8-6.49,0-4.59-3.64-6.73-8.71-6.73h-9.27v13.23Z"/>
    <path class="cls-1" d="M101.06,236.74h22.18v10.45h-33.42v-55.6h32.71v10.45h-21.46v12.04h19.09v10.3h-19.09v12.36Z"/>
    <path class="cls-1" d="M157.77,247.19c-18.93,0-30.1-10.38-30.1-27.88s10.93-27.72,29.46-27.72h8.87v10.45h-9.03c-11.01,0-17.82,6.34-17.82,17.27s6.81,17.42,17.82,17.42h9.03v10.45h-8.24Z"/>
    <path class="cls-1" d="M187.87,247.19v-25.42l-19.48-30.18h13.07l12.04,19.09,12.2-19.09h13.07l-19.64,30.18v25.42h-11.25Z"/>
    <path class="cls-1" d="M247.43,247.19c-18.93,0-30.1-10.38-30.1-27.88s10.93-27.72,29.46-27.72h8.87v10.45h-9.03c-11.01,0-17.82,6.34-17.82,17.27s6.81,17.42,17.82,17.42h9.03v10.45h-8.24Z"/>
    <path class="cls-1" d="M261.45,247.19v-55.6h11.25v45.15h16.79v10.45h-28.04Z"/>
    <path class="cls-1" d="M306.67,236.74h22.18v10.45h-33.42v-55.6h32.71v10.45h-21.46v12.04h19.09v10.3h-19.09v12.36Z"/>
    <path class="cls-1" d="M335.58,247.19v-55.6h14.57c19.17,0,31.6,9.74,31.6,27.8s-12.99,27.8-31.76,27.8h-14.41ZM370.51,219.39c0-11.41-8.08-17.35-19.96-17.35h-3.72v34.69h3.72c11.56,0,19.96-6.65,19.96-17.35Z"/>
    <path class="cls-1" d="M461.19,191.59v55.6h-11.09v-34.14l-14.97,34.14h-8.32l-14.97-34.14v34.14h-11.09v-55.6h12.36l17.82,40.87,17.9-40.87h12.36Z"/>
    <path class="cls-1" d="M465.15,247.19l23.92-55.6h8.55l23.21,55.6h-12.43l-4.12-10.69h-22.57l-4.28,10.69h-12.28ZM500.16,226.2c-2.38-6.1-4.67-12.28-7.05-18.37-2.45,6.1-4.83,12.28-7.29,18.37h14.34Z"/>
    <path class="cls-1" d="M530.18,247.19v-45.15h-12.28v-10.45h35.8v10.45h-12.28v45.15h-11.25Z"/>
    <path class="cls-1" d="M570.81,236.74h22.18v10.45h-33.42v-55.6h32.71v10.45h-21.46v12.04h19.09v10.3h-19.09v12.36Z"/>
    <path class="cls-1" d="M645.02,247.19h-13.31l-15.68-21.54h-5.54v21.54h-11.25v-55.6h20.04c16.32,0,20.35,9.03,20.35,17.19,0,7.37-3.96,13.07-11.4,15.52l16.79,22.89ZM610.49,215.28h9.98c5.15,0,8-2.53,8-6.49,0-4.59-3.64-6.73-8.71-6.73h-9.27v13.23Z"/>
    <path class="cls-1" d="M648.82,247.19v-55.6h11.25v55.6h-11.25Z"/>
    <path class="cls-1" d="M664.19,247.19l23.92-55.6h8.55l23.21,55.6h-12.43l-4.12-10.69h-22.57l-4.28,10.69h-12.28ZM699.2,226.2c-2.38-6.1-4.67-12.28-7.05-18.37-2.45,6.1-4.83,12.28-7.29,18.37h14.34Z"/>
    <path class="cls-1" d="M723.99,247.19v-55.6h11.25v45.15h16.79v10.45h-28.04Z"/>
  </g>
</svg>