<?xml version="1.0" encoding="utf-8"?>
<!-- Generator: Adobe Illustrator 28.3.0, SVG Export Plug-In . SVG Version: 6.00 Build 0)  -->
<svg version="1.1" id="Layer_1" xmlns="http://www.w3.org/2000/svg" xmlns:xlink="http://www.w3.org/1999/xlink" x="0px" y="0px"
	 viewBox="0 0 622.3 70.9" style="enable-background:new 0 0 622.3 70.9;" xml:space="preserve">
<g>
	<g>
		<path d="M614.9,50.1c0.6-0.4,1-0.8,1.3-1.2c0.3-0.4,0.4-1,0.4-1.7c0-0.8-0.3-1.5-1-2.1c-0.7-0.5-1.6-0.8-2.7-0.8h-3.1v9.2h2.2
			v-3.3h0.9l2,3.3h2.3L614.9,50.1L614.9,50.1z M614.1,48.1c-0.2,0.2-0.5,0.3-0.8,0.3h-1.4v-2h1.4c0.4,0,0.7,0.1,0.8,0.3
			c0.2,0.2,0.3,0.4,0.3,0.7C614.4,47.7,614.3,47.9,614.1,48.1L614.1,48.1z"/>
		<path d="M621.2,44.2c-0.8-1.4-1.9-2.6-3.4-3.4c-1.4-0.8-3-1.2-4.7-1.2s-3.2,0.4-4.6,1.2c-1.4,0.8-2.5,2-3.4,3.4
			c-0.8,1.4-1.2,3-1.2,4.7s0.4,3.3,1.2,4.7s1.9,2.6,3.4,3.4c1.4,0.8,3,1.2,4.7,1.2s3.2-0.4,4.6-1.2c1.4-0.8,2.5-2,3.3-3.4
			s1.2-3,1.2-4.7S622,45.6,621.2,44.2L621.2,44.2z M619.3,52.5c-0.6,1.1-1.5,2-2.5,2.6c-1.1,0.6-2.2,0.9-3.5,0.9s-2.5-0.3-3.6-0.9
			s-1.9-1.5-2.5-2.6s-0.9-2.3-0.9-3.6s0.3-2.5,0.9-3.6s1.5-2,2.5-2.6c1.1-0.6,2.3-0.9,3.6-0.9s2.5,0.3,3.5,1s1.9,1.5,2.5,2.6
			s0.9,2.3,0.9,3.6S619.9,51.4,619.3,52.5L619.3,52.5z"/>
	</g>
	<g>
		<path d="M196.8,19.9c-1.3-1.8-3.3-3.3-5.9-4.3c-2.6-1-5.3-1.5-8.1-1.5c-3.6,0-7,0.9-10.1,2.6s-5.6,4.3-7.5,7.6s-2.8,7.2-2.8,11.7
			c0,4.2,0.9,8,2.8,11.4c1.9,3.4,4.3,6,7.4,7.9s6.4,2.8,9.9,2.8c2.7,0,5.4-0.6,8.1-1.9s4.7-2.9,6.2-4.9v5.6h11.1V15.2h-11.1
			L196.8,19.9L196.8,19.9z M195.6,42c-1,1.8-2.3,3.2-4.1,4.2c-1.7,1-3.7,1.5-5.9,1.5s-4.1-0.5-5.8-1.5s-3.2-2.3-4.2-4.1
			c-1.1-1.7-1.6-3.7-1.6-5.8c0-2.3,0.5-4.3,1.5-6.2s2.4-3.3,4.2-4.3s3.8-1.5,6.1-1.5s4.1,0.5,5.8,1.6s3.1,2.5,4,4.3
			c1,1.8,1.5,3.7,1.5,5.8C197.1,38.2,196.6,40.2,195.6,42L195.6,42z"/>
		<path d="M233.3,31.8c-2.5-0.6-4.3-1.3-5.4-2.1s-1.7-1.8-1.7-3c0-1,0.4-1.9,1.2-2.6c0.8-0.7,1.9-1,3.3-1s2.6,0.5,3.8,1.4
			c1.2,1,1.8,2,1.7,3h10.5c0-2.4-0.6-4.7-2.1-6.7c-1.4-2-3.4-3.6-5.9-4.8s-5.2-1.7-8.2-1.7s-5.8,0.5-8.2,1.6s-4.3,2.6-5.7,4.5
			s-2,4.1-2,6.5c0,2.3,0.5,4.2,1.4,5.8s2.4,3,4.3,4.2c1.9,1.2,4.5,2.2,7.7,3c2.3,0.5,4,1.2,5.2,2.1c1.1,0.9,1.7,1.9,1.7,3.1
			s-0.4,2.2-1.2,2.8c-0.8,0.7-1.9,1-3.4,1c-1.9,0-3.4-0.6-4.7-1.7s-1.9-2.6-2-4.3H213c0,2.9,0.8,5.5,2.3,7.8s3.6,4.1,6.3,5.3
			c2.7,1.3,5.7,1.9,9,1.9c3.3,0,6.1-0.6,8.6-1.7s4.5-2.7,5.8-4.8s2.1-4.4,2.1-7.1c0-3.3-1.1-5.9-3.3-8C241.5,34.6,238,33,233.3,31.8
			L233.3,31.8z"/>
		<rect x="145.5" y="1.5" width="11.2" height="55.6"/>
		<polygon points="268.1,1.5 257,1.5 257,15.2 250.6,15.2 250.6,25.3 257,25.3 257,57.1 268.1,57.1 268.1,25.3 275.4,25.3 
			275.4,15.2 268.1,15.2 		"/>
		<path d="M119.9,1.5h-20v55.6h11.2V35.5h8.8c4.3,0,7.9-0.7,11-2.1c3.1-1.4,5.4-3.4,7-5.9s2.4-5.5,2.4-8.8c0-4.9-1.5-8.9-4.6-12.2
			S127.3,1.5,119.9,1.5L119.9,1.5z M126.9,23.4c-1.4,1.2-3.4,1.7-5.9,1.7h-10V11.9h9.3c2.6,0,4.8,0.6,6.3,1.7c1.6,1.1,2.4,2.8,2.4,5
			C129,20.7,128.3,22.3,126.9,23.4L126.9,23.4z"/>
		<path d="M83.8,17.1c-3.3-2-7-2.9-11.2-2.9s-8,1-11.4,2.8c-3.4,1.9-6,4.5-8,7.9c-1.9,3.3-2.9,7.1-2.9,11.4s1,7.8,2.9,11.2
			s4.6,6,7.9,7.9s7.1,2.9,11.1,2.9s7.9-0.9,11.3-2.8s6-4.5,8-7.9s2.9-7.2,2.9-11.3s-0.9-7.8-2.8-11.2C89.7,21.7,87.2,19.1,83.8,17.1
			z M80.4,44.5c-2,2-4.7,3.1-8.1,3.1s-5.9-1.1-7.9-3.2s-3-4.8-3-8.1c0-2.2,0.5-4.2,1.5-5.9s2.3-3,4-4s3.5-1.4,5.5-1.4
			c3.3,0,6,1.1,8.1,3.2c2.1,2.1,3.1,4.8,3.1,8.2S82.4,42.4,80.4,44.5L80.4,44.5z"/>
		<polygon points="34.1,36.8 10.4,1.5 0,1.5 0,57.1 11.2,57.1 11.2,21.8 34.8,57.1 45.3,57.1 45.3,1.5 34.1,1.5 		"/>
		<rect x="280.7" y="15.2" width="11.1" height="41.9"/>
		<path d="M502.4,19.9c-1.3-1.8-3.2-3.3-5.9-4.3s-5.4-1.5-8.1-1.5c-3.6,0-6.9,0.9-10.1,2.6s-5.6,4.3-7.5,7.6s-2.9,7.2-2.9,11.7
			c0,4.2,0.9,8,2.8,11.4s4.3,6,7.4,7.9s6.4,2.8,9.9,2.8c2.7,0,5.5-0.6,8.1-1.9s4.7-2.9,6.2-4.9v5.6h11.1V1.5h-11V19.9L502.4,19.9z
			 M501.2,42c-1,1.8-2.3,3.2-4.1,4.2c-1.7,1-3.7,1.5-5.9,1.5c-2.1,0-4-0.5-5.8-1.5s-3.2-2.3-4.2-4.1c-1-1.7-1.5-3.7-1.5-5.8
			c0-2.3,0.5-4.3,1.5-6.2c1-1.8,2.4-3.3,4.2-4.3s3.8-1.5,6.1-1.5s4.1,0.5,5.8,1.6s3.1,2.5,4,4.3c1,1.8,1.5,3.7,1.5,5.8
			C502.7,38.2,502.2,40.2,501.2,42L501.2,42z"/>
		<path d="M552.7,19.9c-1.3-1.8-3.3-3.3-5.9-4.3c-2.6-1-5.3-1.5-8.1-1.5c-3.6,0-7,0.9-10.1,2.6s-5.7,4.3-7.5,7.6
			c-1.9,3.3-2.8,7.2-2.8,11.7c0,4.2,0.9,8,2.8,11.4c1.9,3.4,4.3,6,7.4,7.9s6.4,2.8,9.9,2.8c2.7,0,5.5-0.6,8.1-1.9s4.7-2.9,6.2-4.9
			v5.6h11.1V15.2h-11.1L552.7,19.9L552.7,19.9z M551.5,42c-1,1.8-2.3,3.2-4.1,4.2c-1.7,1-3.7,1.5-5.9,1.5s-4-0.5-5.8-1.5
			s-3.2-2.3-4.2-4.1c-1.1-1.7-1.6-3.7-1.6-5.8c0-2.3,0.5-4.3,1.5-6.2s2.4-3.3,4.2-4.3s3.8-1.5,6.1-1.5s4.1,0.5,5.8,1.6
			s3.1,2.5,4,4.3c1,1.8,1.5,3.7,1.5,5.8C553,38.2,552.5,40.2,551.5,42L551.5,42z"/>
		<polygon points="600.1,15.2 590.5,38.5 579.6,15.2 567.2,15.2 584.6,51.8 576.1,70.9 588.1,70.9 612.3,15.2 		"/>
		<path d="M454.8,16c-2.6-1.4-5.5-2.1-8.6-2.1c-2.4,0-4.7,0.6-7,1.7c-2.3,1.2-3.9,2.6-4.9,4.3v-4.8h-10.2V57h11.1V37.3
			c0-3.9,0.6-7,1.7-9.3s3.5-3.5,6.9-3.5c3.2,0,5.4,1.2,6.6,3.4c1.2,2.3,1.8,5.4,1.8,9.4v19.8h11.1V33.5c0-4.4-0.8-8.1-2.3-11
			S457.4,17.4,454.8,16L454.8,16z"/>
		<path d="M306.3,18c-3.1,1.8-5.4,4.4-6.9,7.5s-2.3,6.7-2.3,10.6s0.9,7.4,2.6,10.6s4.2,5.7,7.4,7.6c3.2,1.9,6.8,2.8,10.9,2.8h10.6
			V46.9h-10.1c-3.2,0-5.8-1-7.6-2.9c-1.9-1.9-2.8-4.6-2.8-7.9s0.9-5.9,2.8-7.8s4.4-2.9,7.6-2.9h10.1V15.2h-11.2
			C313,15.2,309.3,16.1,306.3,18L306.3,18z"/>
		<path d="M407,37.5c0,3.8-0.7,6.5-2.1,8.1s-3.5,2.4-6.3,2.4s-4.8-0.8-6.2-2.4c-1.4-1.6-2.1-4.3-2.1-8.1V15.2h-11.1v22.4
			c0,7.1,1.7,12.3,5,15.7s8.2,5.1,14.5,5.1s11.2-1.7,14.5-5s5-8.6,5-15.7V15.2h-11.1L407,37.5L407,37.5z"/>
		<path d="M357.5,23.9c-0.1,0-0.2-0.1-0.4-0.1s-0.3-0.1-0.5-0.1c-3.5-0.9-6-1.9-7.5-3s-2.2-2.6-2.2-4.4s0.7-3.3,2-4.5
			c1.4-1.1,3.1-1.7,5.3-1.7c2.3,0,4.3,0.7,5.8,2.1c1.6,1.4,2.3,3.2,2.3,5.4h11.3c0-3.3-0.8-6.3-2.5-9S367,3.8,364,2.3
			c-3.1-1.5-6.5-2.3-10.2-2.3s-7.1,0.7-10,2.1c-3,1.4-5.3,3.4-7,5.9s-2.4,5.4-2.4,8.6c0,4.3,1.4,7.8,4,10.4
			c2.7,2.7,6.9,4.7,12.8,6.1c0.4,0.1,0.7,0.2,1.1,0.3c0.3,0.1,0.7,0.2,1.1,0.3c2.8,0.9,4.9,2,6.2,3.4c1.4,1.4,2.1,3,2.1,4.8
			c0,1.9-0.8,3.6-2.3,4.8s-3.5,1.9-5.9,1.9c-2.6,0-4.7-0.8-6.4-2.4c-1.7-1.6-2.6-3.8-2.7-6.6h-11.5c0,3.9,0.9,7.3,2.7,10.2
			s4.3,5.2,7.5,6.8s6.9,2.4,11,2.4c3.9,0,7.4-0.8,10.5-2.3s5.5-3.6,7.3-6.2s2.6-5.6,2.6-8.9c0-4.5-1.4-8.3-4.2-11.2
			C367.5,27.6,363.2,25.4,357.5,23.9L357.5,23.9z"/>
		<rect x="280.4" y="1.5" width="11.6" height="10"/>
	</g>
</g>
</svg>
